<?xml version="1.0" encoding="utf-8" standalone="no"?>
<!DOCTYPE svg PUBLIC "-//W3C//DTD SVG 1.1//EN"
  "http://www.w3.org/Graphics/SVG/1.1/DTD/svg11.dtd">
<svg height="288pt" version="1.1" viewBox="0 0 864 288" width="864pt" xmlns="http://www.w3.org/2000/svg" xmlns:xlink="http://www.w3.org/1999/xlink">
 <metadata>
  <rdf:RDF xmlns:cc="http://creativecommons.org/ns#" xmlns:dc="http://purl.org/dc/elements/1.1/" xmlns:rdf="http://www.w3.org/1999/02/22-rdf-syntax-ns#">
   <cc:Work>
    <dc:type rdf:resource="http://purl.org/dc/dcmitype/StillImage"/>
    <dc:date>2021-12-17T15:03:46.894153</dc:date>
    <dc:format>image/svg+xml</dc:format>
    <dc:creator>
     <cc:Agent>
      <dc:title>Matplotlib v3.4.3, https://matplotlib.org/</dc:title>
     </cc:Agent>
    </dc:creator>
   </cc:Work>
  </rdf:RDF>
 </metadata>
 <defs>
  <style type="text/css">*{stroke-linecap:butt;stroke-linejoin:round;}</style>
 </defs>
 <g id="figure_1">
  <g id="patch_1">
   <path d="M 0 288 
L 864 288 
L 864 0 
L 0 0 
z
" style="fill:#ffffff;"/>
  </g>
  <g id="axes_1">
   <g id="patch_2">
    <path d="M 50.96 246.04 
L 853.2 246.04 
L 853.2 49.52 
L 50.96 49.52 
z
" style="fill:#ffffff;"/>
   </g>
   <g id="patch_3">
    <path clip-path="url(#p9947aa661e)" d="M 87.425455 246.04 
L 96.485195 246.04 
L 96.485195 136.862222 
L 87.425455 136.862222 
z
" style="fill:#ff0000;"/>
   </g>
   <g id="patch_4">
    <path clip-path="url(#p9947aa661e)" d="M 98.75013 246.04 
L 107.80987 246.04 
L 107.80987 132.495111 
L 98.75013 132.495111 
z
" style="fill:#ff0000;"/>
   </g>
   <g id="patch_5">
    <path clip-path="url(#p9947aa661e)" d="M 110.074805 246.04 
L 119.134545 246.04 
L 119.134545 -149.183556 
L 110.074805 -149.183556 
z
" style="fill:#d3d3d3;"/>
   </g>
   <g id="patch_6">
    <path clip-path="url(#p9947aa661e)" d="M 121.399481 246.04 
L 130.459221 246.04 
L 130.459221 -156.826 
L 121.399481 -156.826 
z
" style="fill:#d3d3d3;"/>
   </g>
   <g id="patch_7">
    <path clip-path="url(#p9947aa661e)" d="M 132.724156 246.04 
L 141.783896 246.04 
L 141.783896 -169.927333 
L 132.724156 -169.927333 
z
" style="fill:#d3d3d3;"/>
   </g>
   <g id="patch_8">
    <path clip-path="url(#p9947aa661e)" d="M 144.048831 246.04 
L 153.108571 246.04 
L 153.108571 -134.990444 
L 144.048831 -134.990444 
z
" style="fill:#d3d3d3;"/>
   </g>
   <g id="patch_9">
    <path clip-path="url(#p9947aa661e)" d="M 155.373506 246.04 
L 164.433247 246.04 
L 164.433247 -152.458889 
L 155.373506 -152.458889 
z
" style="fill:#d3d3d3;"/>
   </g>
   <g id="patch_10">
    <path clip-path="url(#p9947aa661e)" d="M 166.698182 246.04 
L 175.757922 246.04 
L 175.757922 -122.980889 
L 166.698182 -122.980889 
z
" style="fill:#d3d3d3;"/>
   </g>
   <g id="patch_11">
    <path clip-path="url(#p9947aa661e)" d="M 178.022857 246.04 
L 187.082597 246.04 
L 187.082597 -121.889111 
L 178.022857 -121.889111 
z
" style="fill:#d3d3d3;"/>
   </g>
   <g id="patch_12">
    <path clip-path="url(#p9947aa661e)" d="M 189.347532 246.04 
L 198.407273 246.04 
L 198.407273 -141.541111 
L 189.347532 -141.541111 
z
" style="fill:#d3d3d3;"/>
   </g>
   <g id="patch_13">
    <path clip-path="url(#p9947aa661e)" d="M 200.672208 246.04 
L 209.731948 246.04 
L 209.731948 -112.063111 
L 200.672208 -112.063111 
z
" style="fill:#d3d3d3;"/>
   </g>
   <g id="patch_14">
    <path clip-path="url(#p9947aa661e)" d="M 211.996883 246.04 
L 221.056623 246.04 
L 221.056623 -163.376667 
L 211.996883 -163.376667 
z
" style="fill:#d3d3d3;"/>
   </g>
   <g id="patch_15">
    <path clip-path="url(#p9947aa661e)" d="M 223.321558 246.04 
L 232.381299 246.04 
L 232.381299 -130.623333 
L 223.321558 -130.623333 
z
" style="fill:#d3d3d3;"/>
   </g>
   <g id="patch_16">
    <path clip-path="url(#p9947aa661e)" d="M 234.646234 246.04 
L 243.705974 246.04 
L 243.705974 -145.908222 
L 234.646234 -145.908222 
z
" style="fill:#d3d3d3;"/>
   </g>
   <g id="patch_17">
    <path clip-path="url(#p9947aa661e)" d="M 245.970909 246.04 
L 255.030649 246.04 
L 255.030649 -106.604222 
L 245.970909 -106.604222 
z
" style="fill:#d3d3d3;"/>
   </g>
   <g id="patch_18">
    <path clip-path="url(#p9947aa661e)" d="M 257.295584 246.04 
L 266.355325 246.04 
L 266.355325 -160.101333 
L 257.295584 -160.101333 
z
" style="fill:#d3d3d3;"/>
   </g>
   <g id="patch_19">
    <path clip-path="url(#p9947aa661e)" d="M 268.62026 246.04 
L 277.68 246.04 
L 277.68 -113.154889 
L 268.62026 -113.154889 
z
" style="fill:#d3d3d3;"/>
   </g>
   <g id="patch_20">
    <path clip-path="url(#p9947aa661e)" d="M 279.944935 246.04 
L 289.004675 246.04 
L 289.004675 -132.806889 
L 279.944935 -132.806889 
z
" style="fill:#d3d3d3;"/>
   </g>
   <g id="patch_21">
    <path clip-path="url(#p9947aa661e)" d="M 291.26961 246.04 
L 300.329351 246.04 
L 300.329351 -163.376667 
L 291.26961 -163.376667 
z
" style="fill:#d3d3d3;"/>
   </g>
   <g id="patch_22">
    <path clip-path="url(#p9947aa661e)" d="M 302.594286 246.04 
L 311.654026 246.04 
L 311.654026 -167.743778 
L 302.594286 -167.743778 
z
" style="fill:#d3d3d3;"/>
   </g>
   <g id="patch_23">
    <path clip-path="url(#p9947aa661e)" d="M 313.918961 246.04 
L 322.978701 246.04 
L 322.978701 -129.531556 
L 313.918961 -129.531556 
z
" style="fill:#d3d3d3;"/>
   </g>
   <g id="patch_24">
    <path clip-path="url(#p9947aa661e)" d="M 325.243636 246.04 
L 334.303377 246.04 
L 334.303377 -132.806889 
L 325.243636 -132.806889 
z
" style="fill:#d3d3d3;"/>
   </g>
   <g id="patch_25">
    <path clip-path="url(#p9947aa661e)" d="M 336.568312 246.04 
L 345.628052 246.04 
L 345.628052 -98.961778 
L 336.568312 -98.961778 
z
" style="fill:#d3d3d3;"/>
   </g>
   <g id="patch_26">
    <path clip-path="url(#p9947aa661e)" d="M 347.892987 246.04 
L 356.952727 246.04 
L 356.952727 -172.110889 
L 347.892987 -172.110889 
z
" style="fill:#d3d3d3;"/>
   </g>
   <g id="patch_27">
    <path clip-path="url(#p9947aa661e)" d="M 359.217662 246.04 
L 368.277403 246.04 
L 368.277403 -113.154889 
L 359.217662 -113.154889 
z
" style="fill:#d3d3d3;"/>
   </g>
   <g id="patch_28">
    <path clip-path="url(#p9947aa661e)" d="M 370.542338 246.04 
L 379.602078 246.04 
L 379.602078 -144.816444 
L 370.542338 -144.816444 
z
" style="fill:#d3d3d3;"/>
   </g>
   <g id="patch_29">
    <path clip-path="url(#p9947aa661e)" d="M 381.867013 246.04 
L 390.926753 246.04 
L 390.926753 -114.246667 
L 381.867013 -114.246667 
z
" style="fill:#d3d3d3;"/>
   </g>
   <g id="patch_30">
    <path clip-path="url(#p9947aa661e)" d="M 393.191688 246.04 
L 402.251429 246.04 
L 402.251429 -164.468444 
L 393.191688 -164.468444 
z
" style="fill:#d3d3d3;"/>
   </g>
   <g id="patch_31">
    <path clip-path="url(#p9947aa661e)" d="M 404.516364 246.04 
L 413.576104 246.04 
L 413.576104 -155.734222 
L 404.516364 -155.734222 
z
" style="fill:#d3d3d3;"/>
   </g>
   <g id="patch_32">
    <path clip-path="url(#p9947aa661e)" d="M 415.841039 246.04 
L 424.900779 246.04 
L 424.900779 -138.265778 
L 415.841039 -138.265778 
z
" style="fill:#d3d3d3;"/>
   </g>
   <g id="patch_33">
    <path clip-path="url(#p9947aa661e)" d="M 427.165714 246.04 
L 436.225455 246.04 
L 436.225455 -167.743778 
L 427.165714 -167.743778 
z
" style="fill:#d3d3d3;"/>
   </g>
   <g id="patch_34">
    <path clip-path="url(#p9947aa661e)" d="M 438.49039 246.04 
L 447.55013 246.04 
L 447.55013 -173.202667 
L 438.49039 -173.202667 
z
" style="fill:#d3d3d3;"/>
   </g>
   <g id="patch_35">
    <path clip-path="url(#p9947aa661e)" d="M 449.815065 246.04 
L 458.874805 246.04 
L 458.874805 -156.826 
L 449.815065 -156.826 
z
" style="fill:#d3d3d3;"/>
   </g>
   <g id="patch_36">
    <path clip-path="url(#p9947aa661e)" d="M 461.13974 246.04 
L 470.199481 246.04 
L 470.199481 -154.642444 
L 461.13974 -154.642444 
z
" style="fill:#d3d3d3;"/>
   </g>
   <g id="patch_37">
    <path clip-path="url(#p9947aa661e)" d="M 472.464416 246.04 
L 481.524156 246.04 
L 481.524156 -128.439778 
L 472.464416 -128.439778 
z
" style="fill:#d3d3d3;"/>
   </g>
   <g id="patch_38">
    <path clip-path="url(#p9947aa661e)" d="M 483.789091 246.04 
L 492.848831 246.04 
L 492.848831 -133.898667 
L 483.789091 -133.898667 
z
" style="fill:#d3d3d3;"/>
   </g>
   <g id="patch_39">
    <path clip-path="url(#p9947aa661e)" d="M 495.113766 246.04 
L 504.173506 246.04 
L 504.173506 -125.164444 
L 495.113766 -125.164444 
z
" style="fill:#d3d3d3;"/>
   </g>
   <g id="patch_40">
    <path clip-path="url(#p9947aa661e)" d="M 506.438442 246.04 
L 515.498182 246.04 
L 515.498182 -124.072667 
L 506.438442 -124.072667 
z
" style="fill:#d3d3d3;"/>
   </g>
   <g id="patch_41">
    <path clip-path="url(#p9947aa661e)" d="M 517.763117 246.04 
L 526.822857 246.04 
L 526.822857 -118.613778 
L 517.763117 -118.613778 
z
" style="fill:#d3d3d3;"/>
   </g>
   <g id="patch_42">
    <path clip-path="url(#p9947aa661e)" d="M 529.087792 246.04 
L 538.147532 246.04 
L 538.147532 -137.174 
L 529.087792 -137.174 
z
" style="fill:#d3d3d3;"/>
   </g>
   <g id="patch_43">
    <path clip-path="url(#p9947aa661e)" d="M 540.412468 246.04 
L 549.472208 246.04 
L 549.472208 -132.806889 
L 540.412468 -132.806889 
z
" style="fill:#d3d3d3;"/>
   </g>
   <g id="patch_44">
    <path clip-path="url(#p9947aa661e)" d="M 551.737143 246.04 
L 560.796883 246.04 
L 560.796883 -128.439778 
L 551.737143 -128.439778 
z
" style="fill:#d3d3d3;"/>
   </g>
   <g id="patch_45">
    <path clip-path="url(#p9947aa661e)" d="M 563.061818 246.04 
L 572.121558 246.04 
L 572.121558 -143.724667 
L 563.061818 -143.724667 
z
" style="fill:#d3d3d3;"/>
   </g>
   <g id="patch_46">
    <path clip-path="url(#p9947aa661e)" d="M 574.386494 246.04 
L 583.446234 246.04 
L 583.446234 -144.816444 
L 574.386494 -144.816444 
z
" style="fill:#d3d3d3;"/>
   </g>
   <g id="patch_47">
    <path clip-path="url(#p9947aa661e)" d="M 585.711169 246.04 
L 594.770909 246.04 
L 594.770909 -138.265778 
L 585.711169 -138.265778 
z
" style="fill:#d3d3d3;"/>
   </g>
   <g id="patch_48">
    <path clip-path="url(#p9947aa661e)" d="M 597.035844 246.04 
L 606.095584 246.04 
L 606.095584 -136.082222 
L 597.035844 -136.082222 
z
" style="fill:#d3d3d3;"/>
   </g>
   <g id="patch_49">
    <path clip-path="url(#p9947aa661e)" d="M 608.360519 246.04 
L 617.42026 246.04 
L 617.42026 -131.715111 
L 608.360519 -131.715111 
z
" style="fill:#d3d3d3;"/>
   </g>
   <g id="patch_50">
    <path clip-path="url(#p9947aa661e)" d="M 619.685195 246.04 
L 628.744935 246.04 
L 628.744935 -115.338444 
L 619.685195 -115.338444 
z
" style="fill:#d3d3d3;"/>
   </g>
   <g id="patch_51">
    <path clip-path="url(#p9947aa661e)" d="M 631.00987 246.04 
L 640.06961 246.04 
L 640.06961 -132.806889 
L 631.00987 -132.806889 
z
" style="fill:#d3d3d3;"/>
   </g>
   <g id="patch_52">
    <path clip-path="url(#p9947aa661e)" d="M 642.334545 246.04 
L 651.394286 246.04 
L 651.394286 -120.797333 
L 642.334545 -120.797333 
z
" style="fill:#d3d3d3;"/>
   </g>
   <g id="patch_53">
    <path clip-path="url(#p9947aa661e)" d="M 653.659221 246.04 
L 662.718961 246.04 
L 662.718961 -141.541111 
L 653.659221 -141.541111 
z
" style="fill:#d3d3d3;"/>
   </g>
   <g id="patch_54">
    <path clip-path="url(#p9947aa661e)" d="M 664.983896 246.04 
L 674.043636 246.04 
L 674.043636 -78.218 
L 664.983896 -78.218 
z
" style="fill:#d3d3d3;"/>
   </g>
   <g id="patch_55">
    <path clip-path="url(#p9947aa661e)" d="M 676.308571 246.04 
L 685.368312 246.04 
L 685.368312 -203.772444 
L 676.308571 -203.772444 
z
" style="fill:#d3d3d3;"/>
   </g>
   <g id="patch_56">
    <path clip-path="url(#p9947aa661e)" d="M 687.633247 246.04 
L 696.692987 246.04 
L 696.692987 -175.386222 
L 687.633247 -175.386222 
z
" style="fill:#d3d3d3;"/>
   </g>
   <g id="patch_57">
    <path clip-path="url(#p9947aa661e)" d="M 698.957922 246.04 
L 708.017662 246.04 
L 708.017662 135.770444 
L 698.957922 135.770444 
z
" style="fill:#ff0000;"/>
   </g>
   <g id="patch_58">
    <path clip-path="url(#p9947aa661e)" d="M 710.282597 246.04 
L 719.342338 246.04 
L 719.342338 76.814444 
L 710.282597 76.814444 
z
" style="fill:#d3d3d3;"/>
   </g>
   <g id="patch_59">
    <path clip-path="url(#p9947aa661e)" d="M 721.607273 246.04 
L 730.667013 246.04 
L 730.667013 20.042 
L 721.607273 20.042 
z
" style="fill:#d3d3d3;"/>
   </g>
   <g id="patch_60">
    <path clip-path="url(#p9947aa661e)" d="M 732.931948 246.04 
L 741.991688 246.04 
L 741.991688 98.65 
L 732.931948 98.65 
z
" style="fill:#ff0000;"/>
   </g>
   <g id="patch_61">
    <path clip-path="url(#p9947aa661e)" d="M 744.256623 246.04 
L 753.316364 246.04 
L 753.316364 135.770444 
L 744.256623 135.770444 
z
" style="fill:#ff0000;"/>
   </g>
   <g id="patch_62">
    <path clip-path="url(#p9947aa661e)" d="M 755.581299 246.04 
L 764.641039 246.04 
L 764.641039 131.403333 
L 755.581299 131.403333 
z
" style="fill:#ff0000;"/>
   </g>
   <g id="patch_63">
    <path clip-path="url(#p9947aa661e)" d="M 766.905974 246.04 
L 775.965714 246.04 
L 775.965714 61.529556 
L 766.905974 61.529556 
z
" style="fill:#d3d3d3;"/>
   </g>
   <g id="patch_64">
    <path clip-path="url(#p9947aa661e)" d="M 778.230649 246.04 
L 787.29039 246.04 
L 787.29039 58.254222 
L 778.230649 58.254222 
z
" style="fill:#d3d3d3;"/>
   </g>
   <g id="patch_65">
    <path clip-path="url(#p9947aa661e)" d="M 789.555325 246.04 
L 798.615065 246.04 
L 798.615065 135.770444 
L 789.555325 135.770444 
z
" style="fill:#ff0000;"/>
   </g>
   <g id="patch_66">
    <path clip-path="url(#p9947aa661e)" d="M 800.88 246.04 
L 809.93974 246.04 
L 809.93974 132.495111 
L 800.88 132.495111 
z
" style="fill:#ff0000;"/>
   </g>
   <g id="matplotlib.axis_1">
    <g id="xtick_1">
     <g id="line2d_1">
      <defs>
       <path d="M 0 0 
L 0 3.5 
" id="mdc47f4419c" style="stroke:#000000;stroke-width:0.8;"/>
      </defs>
      <g>
       <use style="stroke:#000000;stroke-width:0.8;" x="159.903377" xlink:href="#mdc47f4419c" y="246.04"/>
      </g>
     </g>
     <g id="text_1">
      <!-- 70 -->
      <g transform="translate(153.540877 260.638438)scale(0.1 -0.1)">
       <defs>
        <path d="M 525 4666 
L 3525 4666 
L 3525 4397 
L 1831 0 
L 1172 0 
L 2766 4134 
L 525 4134 
L 525 4666 
z
" id="DejaVuSans-37" transform="scale(0.015625)"/>
        <path d="M 2034 4250 
Q 1547 4250 1301 3770 
Q 1056 3291 1056 2328 
Q 1056 1369 1301 889 
Q 1547 409 2034 409 
Q 2525 409 2770 889 
Q 3016 1369 3016 2328 
Q 3016 3291 2770 3770 
Q 2525 4250 2034 4250 
z
M 2034 4750 
Q 2819 4750 3233 4129 
Q 3647 3509 3647 2328 
Q 3647 1150 3233 529 
Q 2819 -91 2034 -91 
Q 1250 -91 836 529 
Q 422 1150 422 2328 
Q 422 3509 836 4129 
Q 1250 4750 2034 4750 
z
" id="DejaVuSans-30" transform="scale(0.015625)"/>
       </defs>
       <use xlink:href="#DejaVuSans-37"/>
       <use x="63.623047" xlink:href="#DejaVuSans-30"/>
      </g>
     </g>
    </g>
    <g id="xtick_2">
     <g id="line2d_2">
      <g>
       <use style="stroke:#000000;stroke-width:0.8;" x="273.15013" xlink:href="#mdc47f4419c" y="246.04"/>
      </g>
     </g>
     <g id="text_2">
      <!-- 80 -->
      <g transform="translate(266.78763 260.638438)scale(0.1 -0.1)">
       <defs>
        <path d="M 2034 2216 
Q 1584 2216 1326 1975 
Q 1069 1734 1069 1313 
Q 1069 891 1326 650 
Q 1584 409 2034 409 
Q 2484 409 2743 651 
Q 3003 894 3003 1313 
Q 3003 1734 2745 1975 
Q 2488 2216 2034 2216 
z
M 1403 2484 
Q 997 2584 770 2862 
Q 544 3141 544 3541 
Q 544 4100 942 4425 
Q 1341 4750 2034 4750 
Q 2731 4750 3128 4425 
Q 3525 4100 3525 3541 
Q 3525 3141 3298 2862 
Q 3072 2584 2669 2484 
Q 3125 2378 3379 2068 
Q 3634 1759 3634 1313 
Q 3634 634 3220 271 
Q 2806 -91 2034 -91 
Q 1263 -91 848 271 
Q 434 634 434 1313 
Q 434 1759 690 2068 
Q 947 2378 1403 2484 
z
M 1172 3481 
Q 1172 3119 1398 2916 
Q 1625 2713 2034 2713 
Q 2441 2713 2670 2916 
Q 2900 3119 2900 3481 
Q 2900 3844 2670 4047 
Q 2441 4250 2034 4250 
Q 1625 4250 1398 4047 
Q 1172 3844 1172 3481 
z
" id="DejaVuSans-38" transform="scale(0.015625)"/>
       </defs>
       <use xlink:href="#DejaVuSans-38"/>
       <use x="63.623047" xlink:href="#DejaVuSans-30"/>
      </g>
     </g>
    </g>
    <g id="xtick_3">
     <g id="line2d_3">
      <g>
       <use style="stroke:#000000;stroke-width:0.8;" x="386.396883" xlink:href="#mdc47f4419c" y="246.04"/>
      </g>
     </g>
     <g id="text_3">
      <!-- 90 -->
      <g transform="translate(380.034383 260.638438)scale(0.1 -0.1)">
       <defs>
        <path d="M 703 97 
L 703 672 
Q 941 559 1184 500 
Q 1428 441 1663 441 
Q 2288 441 2617 861 
Q 2947 1281 2994 2138 
Q 2813 1869 2534 1725 
Q 2256 1581 1919 1581 
Q 1219 1581 811 2004 
Q 403 2428 403 3163 
Q 403 3881 828 4315 
Q 1253 4750 1959 4750 
Q 2769 4750 3195 4129 
Q 3622 3509 3622 2328 
Q 3622 1225 3098 567 
Q 2575 -91 1691 -91 
Q 1453 -91 1209 -44 
Q 966 3 703 97 
z
M 1959 2075 
Q 2384 2075 2632 2365 
Q 2881 2656 2881 3163 
Q 2881 3666 2632 3958 
Q 2384 4250 1959 4250 
Q 1534 4250 1286 3958 
Q 1038 3666 1038 3163 
Q 1038 2656 1286 2365 
Q 1534 2075 1959 2075 
z
" id="DejaVuSans-39" transform="scale(0.015625)"/>
       </defs>
       <use xlink:href="#DejaVuSans-39"/>
       <use x="63.623047" xlink:href="#DejaVuSans-30"/>
      </g>
     </g>
    </g>
    <g id="xtick_4">
     <g id="line2d_4">
      <g>
       <use style="stroke:#000000;stroke-width:0.8;" x="499.643636" xlink:href="#mdc47f4419c" y="246.04"/>
      </g>
     </g>
     <g id="text_4">
      <!-- 100 -->
      <g transform="translate(490.099886 260.638438)scale(0.1 -0.1)">
       <defs>
        <path d="M 794 531 
L 1825 531 
L 1825 4091 
L 703 3866 
L 703 4441 
L 1819 4666 
L 2450 4666 
L 2450 531 
L 3481 531 
L 3481 0 
L 794 0 
L 794 531 
z
" id="DejaVuSans-31" transform="scale(0.015625)"/>
       </defs>
       <use xlink:href="#DejaVuSans-31"/>
       <use x="63.623047" xlink:href="#DejaVuSans-30"/>
       <use x="127.246094" xlink:href="#DejaVuSans-30"/>
      </g>
     </g>
    </g>
    <g id="xtick_5">
     <g id="line2d_5">
      <g>
       <use style="stroke:#000000;stroke-width:0.8;" x="612.89039" xlink:href="#mdc47f4419c" y="246.04"/>
      </g>
     </g>
     <g id="text_5">
      <!-- 110 -->
      <g transform="translate(603.34664 260.638438)scale(0.1 -0.1)">
       <use xlink:href="#DejaVuSans-31"/>
       <use x="63.623047" xlink:href="#DejaVuSans-31"/>
       <use x="127.246094" xlink:href="#DejaVuSans-30"/>
      </g>
     </g>
    </g>
    <g id="xtick_6">
     <g id="line2d_6">
      <g>
       <use style="stroke:#000000;stroke-width:0.8;" x="726.137143" xlink:href="#mdc47f4419c" y="246.04"/>
      </g>
     </g>
     <g id="text_6">
      <!-- 120 -->
      <g transform="translate(716.593393 260.638438)scale(0.1 -0.1)">
       <defs>
        <path d="M 1228 531 
L 3431 531 
L 3431 0 
L 469 0 
L 469 531 
Q 828 903 1448 1529 
Q 2069 2156 2228 2338 
Q 2531 2678 2651 2914 
Q 2772 3150 2772 3378 
Q 2772 3750 2511 3984 
Q 2250 4219 1831 4219 
Q 1534 4219 1204 4116 
Q 875 4013 500 3803 
L 500 4441 
Q 881 4594 1212 4672 
Q 1544 4750 1819 4750 
Q 2544 4750 2975 4387 
Q 3406 4025 3406 3419 
Q 3406 3131 3298 2873 
Q 3191 2616 2906 2266 
Q 2828 2175 2409 1742 
Q 1991 1309 1228 531 
z
" id="DejaVuSans-32" transform="scale(0.015625)"/>
       </defs>
       <use xlink:href="#DejaVuSans-31"/>
       <use x="63.623047" xlink:href="#DejaVuSans-32"/>
       <use x="127.246094" xlink:href="#DejaVuSans-30"/>
      </g>
     </g>
    </g>
    <g id="xtick_7">
     <g id="line2d_7">
      <g>
       <use style="stroke:#000000;stroke-width:0.8;" x="839.383896" xlink:href="#mdc47f4419c" y="246.04"/>
      </g>
     </g>
     <g id="text_7">
      <!-- 130 -->
      <g transform="translate(829.840146 260.638438)scale(0.1 -0.1)">
       <defs>
        <path d="M 2597 2516 
Q 3050 2419 3304 2112 
Q 3559 1806 3559 1356 
Q 3559 666 3084 287 
Q 2609 -91 1734 -91 
Q 1441 -91 1130 -33 
Q 819 25 488 141 
L 488 750 
Q 750 597 1062 519 
Q 1375 441 1716 441 
Q 2309 441 2620 675 
Q 2931 909 2931 1356 
Q 2931 1769 2642 2001 
Q 2353 2234 1838 2234 
L 1294 2234 
L 1294 2753 
L 1863 2753 
Q 2328 2753 2575 2939 
Q 2822 3125 2822 3475 
Q 2822 3834 2567 4026 
Q 2313 4219 1838 4219 
Q 1578 4219 1281 4162 
Q 984 4106 628 3988 
L 628 4550 
Q 988 4650 1302 4700 
Q 1616 4750 1894 4750 
Q 2613 4750 3031 4423 
Q 3450 4097 3450 3541 
Q 3450 3153 3228 2886 
Q 3006 2619 2597 2516 
z
" id="DejaVuSans-33" transform="scale(0.015625)"/>
       </defs>
       <use xlink:href="#DejaVuSans-31"/>
       <use x="63.623047" xlink:href="#DejaVuSans-33"/>
       <use x="127.246094" xlink:href="#DejaVuSans-30"/>
      </g>
     </g>
    </g>
    <g id="text_8">
     <!-- Cache Line Index -->
     <g transform="translate(409.165156 274.316562)scale(0.1 -0.1)">
      <defs>
       <path d="M 4122 4306 
L 4122 3641 
Q 3803 3938 3442 4084 
Q 3081 4231 2675 4231 
Q 1875 4231 1450 3742 
Q 1025 3253 1025 2328 
Q 1025 1406 1450 917 
Q 1875 428 2675 428 
Q 3081 428 3442 575 
Q 3803 722 4122 1019 
L 4122 359 
Q 3791 134 3420 21 
Q 3050 -91 2638 -91 
Q 1578 -91 968 557 
Q 359 1206 359 2328 
Q 359 3453 968 4101 
Q 1578 4750 2638 4750 
Q 3056 4750 3426 4639 
Q 3797 4528 4122 4306 
z
" id="DejaVuSans-43" transform="scale(0.015625)"/>
       <path d="M 2194 1759 
Q 1497 1759 1228 1600 
Q 959 1441 959 1056 
Q 959 750 1161 570 
Q 1363 391 1709 391 
Q 2188 391 2477 730 
Q 2766 1069 2766 1631 
L 2766 1759 
L 2194 1759 
z
M 3341 1997 
L 3341 0 
L 2766 0 
L 2766 531 
Q 2569 213 2275 61 
Q 1981 -91 1556 -91 
Q 1019 -91 701 211 
Q 384 513 384 1019 
Q 384 1609 779 1909 
Q 1175 2209 1959 2209 
L 2766 2209 
L 2766 2266 
Q 2766 2663 2505 2880 
Q 2244 3097 1772 3097 
Q 1472 3097 1187 3025 
Q 903 2953 641 2809 
L 641 3341 
Q 956 3463 1253 3523 
Q 1550 3584 1831 3584 
Q 2591 3584 2966 3190 
Q 3341 2797 3341 1997 
z
" id="DejaVuSans-61" transform="scale(0.015625)"/>
       <path d="M 3122 3366 
L 3122 2828 
Q 2878 2963 2633 3030 
Q 2388 3097 2138 3097 
Q 1578 3097 1268 2742 
Q 959 2388 959 1747 
Q 959 1106 1268 751 
Q 1578 397 2138 397 
Q 2388 397 2633 464 
Q 2878 531 3122 666 
L 3122 134 
Q 2881 22 2623 -34 
Q 2366 -91 2075 -91 
Q 1284 -91 818 406 
Q 353 903 353 1747 
Q 353 2603 823 3093 
Q 1294 3584 2113 3584 
Q 2378 3584 2631 3529 
Q 2884 3475 3122 3366 
z
" id="DejaVuSans-63" transform="scale(0.015625)"/>
       <path d="M 3513 2113 
L 3513 0 
L 2938 0 
L 2938 2094 
Q 2938 2591 2744 2837 
Q 2550 3084 2163 3084 
Q 1697 3084 1428 2787 
Q 1159 2491 1159 1978 
L 1159 0 
L 581 0 
L 581 4863 
L 1159 4863 
L 1159 2956 
Q 1366 3272 1645 3428 
Q 1925 3584 2291 3584 
Q 2894 3584 3203 3211 
Q 3513 2838 3513 2113 
z
" id="DejaVuSans-68" transform="scale(0.015625)"/>
       <path d="M 3597 1894 
L 3597 1613 
L 953 1613 
Q 991 1019 1311 708 
Q 1631 397 2203 397 
Q 2534 397 2845 478 
Q 3156 559 3463 722 
L 3463 178 
Q 3153 47 2828 -22 
Q 2503 -91 2169 -91 
Q 1331 -91 842 396 
Q 353 884 353 1716 
Q 353 2575 817 3079 
Q 1281 3584 2069 3584 
Q 2775 3584 3186 3129 
Q 3597 2675 3597 1894 
z
M 3022 2063 
Q 3016 2534 2758 2815 
Q 2500 3097 2075 3097 
Q 1594 3097 1305 2825 
Q 1016 2553 972 2059 
L 3022 2063 
z
" id="DejaVuSans-65" transform="scale(0.015625)"/>
       <path id="DejaVuSans-20" transform="scale(0.015625)"/>
       <path d="M 628 4666 
L 1259 4666 
L 1259 531 
L 3531 531 
L 3531 0 
L 628 0 
L 628 4666 
z
" id="DejaVuSans-4c" transform="scale(0.015625)"/>
       <path d="M 603 3500 
L 1178 3500 
L 1178 0 
L 603 0 
L 603 3500 
z
M 603 4863 
L 1178 4863 
L 1178 4134 
L 603 4134 
L 603 4863 
z
" id="DejaVuSans-69" transform="scale(0.015625)"/>
       <path d="M 3513 2113 
L 3513 0 
L 2938 0 
L 2938 2094 
Q 2938 2591 2744 2837 
Q 2550 3084 2163 3084 
Q 1697 3084 1428 2787 
Q 1159 2491 1159 1978 
L 1159 0 
L 581 0 
L 581 3500 
L 1159 3500 
L 1159 2956 
Q 1366 3272 1645 3428 
Q 1925 3584 2291 3584 
Q 2894 3584 3203 3211 
Q 3513 2838 3513 2113 
z
" id="DejaVuSans-6e" transform="scale(0.015625)"/>
       <path d="M 628 4666 
L 1259 4666 
L 1259 0 
L 628 0 
L 628 4666 
z
" id="DejaVuSans-49" transform="scale(0.015625)"/>
       <path d="M 2906 2969 
L 2906 4863 
L 3481 4863 
L 3481 0 
L 2906 0 
L 2906 525 
Q 2725 213 2448 61 
Q 2172 -91 1784 -91 
Q 1150 -91 751 415 
Q 353 922 353 1747 
Q 353 2572 751 3078 
Q 1150 3584 1784 3584 
Q 2172 3584 2448 3432 
Q 2725 3281 2906 2969 
z
M 947 1747 
Q 947 1113 1208 752 
Q 1469 391 1925 391 
Q 2381 391 2643 752 
Q 2906 1113 2906 1747 
Q 2906 2381 2643 2742 
Q 2381 3103 1925 3103 
Q 1469 3103 1208 2742 
Q 947 2381 947 1747 
z
" id="DejaVuSans-64" transform="scale(0.015625)"/>
       <path d="M 3513 3500 
L 2247 1797 
L 3578 0 
L 2900 0 
L 1881 1375 
L 863 0 
L 184 0 
L 1544 1831 
L 300 3500 
L 978 3500 
L 1906 2253 
L 2834 3500 
L 3513 3500 
z
" id="DejaVuSans-78" transform="scale(0.015625)"/>
      </defs>
      <use xlink:href="#DejaVuSans-43"/>
      <use x="69.824219" xlink:href="#DejaVuSans-61"/>
      <use x="131.103516" xlink:href="#DejaVuSans-63"/>
      <use x="186.083984" xlink:href="#DejaVuSans-68"/>
      <use x="249.462891" xlink:href="#DejaVuSans-65"/>
      <use x="310.986328" xlink:href="#DejaVuSans-20"/>
      <use x="342.773438" xlink:href="#DejaVuSans-4c"/>
      <use x="398.486328" xlink:href="#DejaVuSans-69"/>
      <use x="426.269531" xlink:href="#DejaVuSans-6e"/>
      <use x="489.648438" xlink:href="#DejaVuSans-65"/>
      <use x="551.171875" xlink:href="#DejaVuSans-20"/>
      <use x="582.958984" xlink:href="#DejaVuSans-49"/>
      <use x="612.451172" xlink:href="#DejaVuSans-6e"/>
      <use x="675.830078" xlink:href="#DejaVuSans-64"/>
      <use x="739.306641" xlink:href="#DejaVuSans-65"/>
      <use x="799.080078" xlink:href="#DejaVuSans-78"/>
     </g>
    </g>
   </g>
   <g id="matplotlib.axis_2">
    <g id="ytick_1">
     <g id="line2d_8">
      <defs>
       <path d="M 0 0 
L -3.5 0 
" id="m6bc2605f62" style="stroke:#000000;stroke-width:0.8;"/>
      </defs>
      <g>
       <use style="stroke:#000000;stroke-width:0.8;" x="50.96" xlink:href="#m6bc2605f62" y="246.04"/>
      </g>
     </g>
     <g id="text_9">
      <!-- 0 -->
      <g transform="translate(37.5975 249.839219)scale(0.1 -0.1)">
       <use xlink:href="#DejaVuSans-30"/>
      </g>
     </g>
    </g>
    <g id="ytick_2">
     <g id="line2d_9">
      <g>
       <use style="stroke:#000000;stroke-width:0.8;" x="50.96" xlink:href="#m6bc2605f62" y="224.204444"/>
      </g>
     </g>
     <g id="text_10">
      <!-- 20 -->
      <g transform="translate(31.235 228.003663)scale(0.1 -0.1)">
       <use xlink:href="#DejaVuSans-32"/>
       <use x="63.623047" xlink:href="#DejaVuSans-30"/>
      </g>
     </g>
    </g>
    <g id="ytick_3">
     <g id="line2d_10">
      <g>
       <use style="stroke:#000000;stroke-width:0.8;" x="50.96" xlink:href="#m6bc2605f62" y="202.368889"/>
      </g>
     </g>
     <g id="text_11">
      <!-- 40 -->
      <g transform="translate(31.235 206.168108)scale(0.1 -0.1)">
       <defs>
        <path d="M 2419 4116 
L 825 1625 
L 2419 1625 
L 2419 4116 
z
M 2253 4666 
L 3047 4666 
L 3047 1625 
L 3713 1625 
L 3713 1100 
L 3047 1100 
L 3047 0 
L 2419 0 
L 2419 1100 
L 313 1100 
L 313 1709 
L 2253 4666 
z
" id="DejaVuSans-34" transform="scale(0.015625)"/>
       </defs>
       <use xlink:href="#DejaVuSans-34"/>
       <use x="63.623047" xlink:href="#DejaVuSans-30"/>
      </g>
     </g>
    </g>
    <g id="ytick_4">
     <g id="line2d_11">
      <g>
       <use style="stroke:#000000;stroke-width:0.8;" x="50.96" xlink:href="#m6bc2605f62" y="180.533333"/>
      </g>
     </g>
     <g id="text_12">
      <!-- 60 -->
      <g transform="translate(31.235 184.332552)scale(0.1 -0.1)">
       <defs>
        <path d="M 2113 2584 
Q 1688 2584 1439 2293 
Q 1191 2003 1191 1497 
Q 1191 994 1439 701 
Q 1688 409 2113 409 
Q 2538 409 2786 701 
Q 3034 994 3034 1497 
Q 3034 2003 2786 2293 
Q 2538 2584 2113 2584 
z
M 3366 4563 
L 3366 3988 
Q 3128 4100 2886 4159 
Q 2644 4219 2406 4219 
Q 1781 4219 1451 3797 
Q 1122 3375 1075 2522 
Q 1259 2794 1537 2939 
Q 1816 3084 2150 3084 
Q 2853 3084 3261 2657 
Q 3669 2231 3669 1497 
Q 3669 778 3244 343 
Q 2819 -91 2113 -91 
Q 1303 -91 875 529 
Q 447 1150 447 2328 
Q 447 3434 972 4092 
Q 1497 4750 2381 4750 
Q 2619 4750 2861 4703 
Q 3103 4656 3366 4563 
z
" id="DejaVuSans-36" transform="scale(0.015625)"/>
       </defs>
       <use xlink:href="#DejaVuSans-36"/>
       <use x="63.623047" xlink:href="#DejaVuSans-30"/>
      </g>
     </g>
    </g>
    <g id="ytick_5">
     <g id="line2d_12">
      <g>
       <use style="stroke:#000000;stroke-width:0.8;" x="50.96" xlink:href="#m6bc2605f62" y="158.697778"/>
      </g>
     </g>
     <g id="text_13">
      <!-- 80 -->
      <g transform="translate(31.235 162.496997)scale(0.1 -0.1)">
       <use xlink:href="#DejaVuSans-38"/>
       <use x="63.623047" xlink:href="#DejaVuSans-30"/>
      </g>
     </g>
    </g>
    <g id="ytick_6">
     <g id="line2d_13">
      <g>
       <use style="stroke:#000000;stroke-width:0.8;" x="50.96" xlink:href="#m6bc2605f62" y="136.862222"/>
      </g>
     </g>
     <g id="text_14">
      <!-- 100 -->
      <g transform="translate(24.8725 140.661441)scale(0.1 -0.1)">
       <use xlink:href="#DejaVuSans-31"/>
       <use x="63.623047" xlink:href="#DejaVuSans-30"/>
       <use x="127.246094" xlink:href="#DejaVuSans-30"/>
      </g>
     </g>
    </g>
    <g id="ytick_7">
     <g id="line2d_14">
      <g>
       <use style="stroke:#000000;stroke-width:0.8;" x="50.96" xlink:href="#m6bc2605f62" y="115.026667"/>
      </g>
     </g>
     <g id="text_15">
      <!-- 120 -->
      <g transform="translate(24.8725 118.825885)scale(0.1 -0.1)">
       <use xlink:href="#DejaVuSans-31"/>
       <use x="63.623047" xlink:href="#DejaVuSans-32"/>
       <use x="127.246094" xlink:href="#DejaVuSans-30"/>
      </g>
     </g>
    </g>
    <g id="ytick_8">
     <g id="line2d_15">
      <g>
       <use style="stroke:#000000;stroke-width:0.8;" x="50.96" xlink:href="#m6bc2605f62" y="93.191111"/>
      </g>
     </g>
     <g id="text_16">
      <!-- 140 -->
      <g transform="translate(24.8725 96.99033)scale(0.1 -0.1)">
       <use xlink:href="#DejaVuSans-31"/>
       <use x="63.623047" xlink:href="#DejaVuSans-34"/>
       <use x="127.246094" xlink:href="#DejaVuSans-30"/>
      </g>
     </g>
    </g>
    <g id="ytick_9">
     <g id="line2d_16">
      <g>
       <use style="stroke:#000000;stroke-width:0.8;" x="50.96" xlink:href="#m6bc2605f62" y="71.355556"/>
      </g>
     </g>
     <g id="text_17">
      <!-- 160 -->
      <g transform="translate(24.8725 75.154774)scale(0.1 -0.1)">
       <use xlink:href="#DejaVuSans-31"/>
       <use x="63.623047" xlink:href="#DejaVuSans-36"/>
       <use x="127.246094" xlink:href="#DejaVuSans-30"/>
      </g>
     </g>
    </g>
    <g id="ytick_10">
     <g id="line2d_17">
      <g>
       <use style="stroke:#000000;stroke-width:0.8;" x="50.96" xlink:href="#m6bc2605f62" y="49.52"/>
      </g>
     </g>
     <g id="text_18">
      <!-- 180 -->
      <g transform="translate(24.8725 53.319219)scale(0.1 -0.1)">
       <use xlink:href="#DejaVuSans-31"/>
       <use x="63.623047" xlink:href="#DejaVuSans-38"/>
       <use x="127.246094" xlink:href="#DejaVuSans-30"/>
      </g>
     </g>
    </g>
    <g id="text_19">
     <!-- Access Time [Cycles] -->
     <g transform="translate(18.792813 200.480781)rotate(-90)scale(0.1 -0.1)">
      <defs>
       <path d="M 2188 4044 
L 1331 1722 
L 3047 1722 
L 2188 4044 
z
M 1831 4666 
L 2547 4666 
L 4325 0 
L 3669 0 
L 3244 1197 
L 1141 1197 
L 716 0 
L 50 0 
L 1831 4666 
z
" id="DejaVuSans-41" transform="scale(0.015625)"/>
       <path d="M 2834 3397 
L 2834 2853 
Q 2591 2978 2328 3040 
Q 2066 3103 1784 3103 
Q 1356 3103 1142 2972 
Q 928 2841 928 2578 
Q 928 2378 1081 2264 
Q 1234 2150 1697 2047 
L 1894 2003 
Q 2506 1872 2764 1633 
Q 3022 1394 3022 966 
Q 3022 478 2636 193 
Q 2250 -91 1575 -91 
Q 1294 -91 989 -36 
Q 684 19 347 128 
L 347 722 
Q 666 556 975 473 
Q 1284 391 1588 391 
Q 1994 391 2212 530 
Q 2431 669 2431 922 
Q 2431 1156 2273 1281 
Q 2116 1406 1581 1522 
L 1381 1569 
Q 847 1681 609 1914 
Q 372 2147 372 2553 
Q 372 3047 722 3315 
Q 1072 3584 1716 3584 
Q 2034 3584 2315 3537 
Q 2597 3491 2834 3397 
z
" id="DejaVuSans-73" transform="scale(0.015625)"/>
       <path d="M -19 4666 
L 3928 4666 
L 3928 4134 
L 2272 4134 
L 2272 0 
L 1638 0 
L 1638 4134 
L -19 4134 
L -19 4666 
z
" id="DejaVuSans-54" transform="scale(0.015625)"/>
       <path d="M 3328 2828 
Q 3544 3216 3844 3400 
Q 4144 3584 4550 3584 
Q 5097 3584 5394 3201 
Q 5691 2819 5691 2113 
L 5691 0 
L 5113 0 
L 5113 2094 
Q 5113 2597 4934 2840 
Q 4756 3084 4391 3084 
Q 3944 3084 3684 2787 
Q 3425 2491 3425 1978 
L 3425 0 
L 2847 0 
L 2847 2094 
Q 2847 2600 2669 2842 
Q 2491 3084 2119 3084 
Q 1678 3084 1418 2786 
Q 1159 2488 1159 1978 
L 1159 0 
L 581 0 
L 581 3500 
L 1159 3500 
L 1159 2956 
Q 1356 3278 1631 3431 
Q 1906 3584 2284 3584 
Q 2666 3584 2933 3390 
Q 3200 3197 3328 2828 
z
" id="DejaVuSans-6d" transform="scale(0.015625)"/>
       <path d="M 550 4863 
L 1875 4863 
L 1875 4416 
L 1125 4416 
L 1125 -397 
L 1875 -397 
L 1875 -844 
L 550 -844 
L 550 4863 
z
" id="DejaVuSans-5b" transform="scale(0.015625)"/>
       <path d="M 2059 -325 
Q 1816 -950 1584 -1140 
Q 1353 -1331 966 -1331 
L 506 -1331 
L 506 -850 
L 844 -850 
Q 1081 -850 1212 -737 
Q 1344 -625 1503 -206 
L 1606 56 
L 191 3500 
L 800 3500 
L 1894 763 
L 2988 3500 
L 3597 3500 
L 2059 -325 
z
" id="DejaVuSans-79" transform="scale(0.015625)"/>
       <path d="M 603 4863 
L 1178 4863 
L 1178 0 
L 603 0 
L 603 4863 
z
" id="DejaVuSans-6c" transform="scale(0.015625)"/>
       <path d="M 1947 4863 
L 1947 -844 
L 622 -844 
L 622 -397 
L 1369 -397 
L 1369 4416 
L 622 4416 
L 622 4863 
L 1947 4863 
z
" id="DejaVuSans-5d" transform="scale(0.015625)"/>
      </defs>
      <use xlink:href="#DejaVuSans-41"/>
      <use x="66.658203" xlink:href="#DejaVuSans-63"/>
      <use x="121.638672" xlink:href="#DejaVuSans-63"/>
      <use x="176.619141" xlink:href="#DejaVuSans-65"/>
      <use x="238.142578" xlink:href="#DejaVuSans-73"/>
      <use x="290.242188" xlink:href="#DejaVuSans-73"/>
      <use x="342.341797" xlink:href="#DejaVuSans-20"/>
      <use x="374.128906" xlink:href="#DejaVuSans-54"/>
      <use x="432.087891" xlink:href="#DejaVuSans-69"/>
      <use x="459.871094" xlink:href="#DejaVuSans-6d"/>
      <use x="557.283203" xlink:href="#DejaVuSans-65"/>
      <use x="618.806641" xlink:href="#DejaVuSans-20"/>
      <use x="650.59375" xlink:href="#DejaVuSans-5b"/>
      <use x="689.607422" xlink:href="#DejaVuSans-43"/>
      <use x="759.431641" xlink:href="#DejaVuSans-79"/>
      <use x="818.611328" xlink:href="#DejaVuSans-63"/>
      <use x="873.591797" xlink:href="#DejaVuSans-6c"/>
      <use x="901.375" xlink:href="#DejaVuSans-65"/>
      <use x="962.898438" xlink:href="#DejaVuSans-73"/>
      <use x="1014.998047" xlink:href="#DejaVuSans-5d"/>
     </g>
    </g>
   </g>
   <g id="line2d_18">
    <path clip-path="url(#p9947aa661e)" d="M 91.955325 82.273333 
L 816.734545 82.273333 
" style="fill:none;stroke:#808080;stroke-dasharray:1.85,0.8;stroke-dashoffset:0;stroke-width:0.5;"/>
   </g>
   <g id="line2d_19">
    <path clip-path="url(#p9947aa661e)" d="M 91.955325 139.045778 
L 816.734545 139.045778 
" style="fill:none;stroke:#808080;stroke-dasharray:1.85,0.8;stroke-dashoffset:0;stroke-width:0.5;"/>
   </g>
   <g id="patch_67">
    <path d="M 50.96 246.04 
L 50.96 49.52 
" style="fill:none;stroke:#000000;stroke-linecap:square;stroke-linejoin:miter;stroke-width:0.8;"/>
   </g>
   <g id="patch_68">
    <path d="M 853.2 246.04 
L 853.2 49.52 
" style="fill:none;stroke:#000000;stroke-linecap:square;stroke-linejoin:miter;stroke-width:0.8;"/>
   </g>
   <g id="patch_69">
    <path d="M 50.96 246.04 
L 853.2 246.04 
" style="fill:none;stroke:#000000;stroke-linecap:square;stroke-linejoin:miter;stroke-width:0.8;"/>
   </g>
   <g id="patch_70">
    <path d="M 50.96 49.52 
L 853.2 49.52 
" style="fill:none;stroke:#000000;stroke-linecap:square;stroke-linejoin:miter;stroke-width:0.8;"/>
   </g>
   <g id="text_20">
    <!-- L2 -->
    <g style="fill:#808080;" transform="translate(69.305974 76.814444)scale(0.1 -0.1)">
     <use xlink:href="#DejaVuSans-4c"/>
     <use x="55.712891" xlink:href="#DejaVuSans-32"/>
    </g>
   </g>
   <g id="text_21">
    <!-- L1 -->
    <g style="fill:#808080;" transform="translate(69.305974 133.586889)scale(0.1 -0.1)">
     <use xlink:href="#DejaVuSans-4c"/>
     <use x="55.712891" xlink:href="#DejaVuSans-31"/>
    </g>
   </g>
   <g id="text_22">
    <!-- Access Order Cache Lines (64 - 127) -->
    <g transform="translate(91.955325 22.225556)scale(0.1 -0.1)">
     <defs>
      <path d="M 2522 4238 
Q 1834 4238 1429 3725 
Q 1025 3213 1025 2328 
Q 1025 1447 1429 934 
Q 1834 422 2522 422 
Q 3209 422 3611 934 
Q 4013 1447 4013 2328 
Q 4013 3213 3611 3725 
Q 3209 4238 2522 4238 
z
M 2522 4750 
Q 3503 4750 4090 4092 
Q 4678 3434 4678 2328 
Q 4678 1225 4090 567 
Q 3503 -91 2522 -91 
Q 1538 -91 948 565 
Q 359 1222 359 2328 
Q 359 3434 948 4092 
Q 1538 4750 2522 4750 
z
" id="DejaVuSans-4f" transform="scale(0.015625)"/>
      <path d="M 2631 2963 
Q 2534 3019 2420 3045 
Q 2306 3072 2169 3072 
Q 1681 3072 1420 2755 
Q 1159 2438 1159 1844 
L 1159 0 
L 581 0 
L 581 3500 
L 1159 3500 
L 1159 2956 
Q 1341 3275 1631 3429 
Q 1922 3584 2338 3584 
Q 2397 3584 2469 3576 
Q 2541 3569 2628 3553 
L 2631 2963 
z
" id="DejaVuSans-72" transform="scale(0.015625)"/>
      <path d="M 1984 4856 
Q 1566 4138 1362 3434 
Q 1159 2731 1159 2009 
Q 1159 1288 1364 580 
Q 1569 -128 1984 -844 
L 1484 -844 
Q 1016 -109 783 600 
Q 550 1309 550 2009 
Q 550 2706 781 3412 
Q 1013 4119 1484 4856 
L 1984 4856 
z
" id="DejaVuSans-28" transform="scale(0.015625)"/>
      <path d="M 313 2009 
L 1997 2009 
L 1997 1497 
L 313 1497 
L 313 2009 
z
" id="DejaVuSans-2d" transform="scale(0.015625)"/>
      <path d="M 513 4856 
L 1013 4856 
Q 1481 4119 1714 3412 
Q 1947 2706 1947 2009 
Q 1947 1309 1714 600 
Q 1481 -109 1013 -844 
L 513 -844 
Q 928 -128 1133 580 
Q 1338 1288 1338 2009 
Q 1338 2731 1133 3434 
Q 928 4138 513 4856 
z
" id="DejaVuSans-29" transform="scale(0.015625)"/>
     </defs>
     <use xlink:href="#DejaVuSans-41"/>
     <use x="66.658203" xlink:href="#DejaVuSans-63"/>
     <use x="121.638672" xlink:href="#DejaVuSans-63"/>
     <use x="176.619141" xlink:href="#DejaVuSans-65"/>
     <use x="238.142578" xlink:href="#DejaVuSans-73"/>
     <use x="290.242188" xlink:href="#DejaVuSans-73"/>
     <use x="342.341797" xlink:href="#DejaVuSans-20"/>
     <use x="374.128906" xlink:href="#DejaVuSans-4f"/>
     <use x="452.839844" xlink:href="#DejaVuSans-72"/>
     <use x="492.203125" xlink:href="#DejaVuSans-64"/>
     <use x="555.679688" xlink:href="#DejaVuSans-65"/>
     <use x="617.203125" xlink:href="#DejaVuSans-72"/>
     <use x="658.316406" xlink:href="#DejaVuSans-20"/>
     <use x="690.103516" xlink:href="#DejaVuSans-43"/>
     <use x="759.927734" xlink:href="#DejaVuSans-61"/>
     <use x="821.207031" xlink:href="#DejaVuSans-63"/>
     <use x="876.1875" xlink:href="#DejaVuSans-68"/>
     <use x="939.566406" xlink:href="#DejaVuSans-65"/>
     <use x="1001.089844" xlink:href="#DejaVuSans-20"/>
     <use x="1032.876953" xlink:href="#DejaVuSans-4c"/>
     <use x="1088.589844" xlink:href="#DejaVuSans-69"/>
     <use x="1116.373047" xlink:href="#DejaVuSans-6e"/>
     <use x="1179.751953" xlink:href="#DejaVuSans-65"/>
     <use x="1241.275391" xlink:href="#DejaVuSans-73"/>
     <use x="1293.375" xlink:href="#DejaVuSans-20"/>
     <use x="1325.162109" xlink:href="#DejaVuSans-28"/>
     <use x="1364.175781" xlink:href="#DejaVuSans-36"/>
     <use x="1427.798828" xlink:href="#DejaVuSans-34"/>
     <use x="1491.421875" xlink:href="#DejaVuSans-20"/>
     <use x="1523.208984" xlink:href="#DejaVuSans-2d"/>
     <use x="1559.292969" xlink:href="#DejaVuSans-20"/>
     <use x="1591.080078" xlink:href="#DejaVuSans-31"/>
     <use x="1654.703125" xlink:href="#DejaVuSans-32"/>
     <use x="1718.326172" xlink:href="#DejaVuSans-37"/>
     <use x="1781.949219" xlink:href="#DejaVuSans-29"/>
    </g>
   </g>
   <g id="text_23">
    <!-- 127 -->
    <g transform="translate(98.034075 40.265972)rotate(-90)scale(0.08 -0.08)">
     <use xlink:href="#DejaVuSans-31"/>
     <use x="63.623047" xlink:href="#DejaVuSans-32"/>
     <use x="127.246094" xlink:href="#DejaVuSans-37"/>
    </g>
   </g>
   <g id="text_24">
    <!-- 95 -->
    <g transform="translate(109.35875 40.265972)rotate(-90)scale(0.08 -0.08)">
     <defs>
      <path d="M 691 4666 
L 3169 4666 
L 3169 4134 
L 1269 4134 
L 1269 2991 
Q 1406 3038 1543 3061 
Q 1681 3084 1819 3084 
Q 2600 3084 3056 2656 
Q 3513 2228 3513 1497 
Q 3513 744 3044 326 
Q 2575 -91 1722 -91 
Q 1428 -91 1123 -41 
Q 819 9 494 109 
L 494 744 
Q 775 591 1075 516 
Q 1375 441 1709 441 
Q 2250 441 2565 725 
Q 2881 1009 2881 1497 
Q 2881 1984 2565 2268 
Q 2250 2553 1709 2553 
Q 1456 2553 1204 2497 
Q 953 2441 691 2322 
L 691 4666 
z
" id="DejaVuSans-35" transform="scale(0.015625)"/>
     </defs>
     <use xlink:href="#DejaVuSans-39"/>
     <use x="63.623047" xlink:href="#DejaVuSans-35"/>
    </g>
   </g>
   <g id="text_25">
    <!-- 126 -->
    <g transform="translate(120.683425 40.265972)rotate(-90)scale(0.08 -0.08)">
     <use xlink:href="#DejaVuSans-31"/>
     <use x="63.623047" xlink:href="#DejaVuSans-32"/>
     <use x="127.246094" xlink:href="#DejaVuSans-36"/>
    </g>
   </g>
   <g id="text_26">
    <!-- 94 -->
    <g transform="translate(132.008101 40.265972)rotate(-90)scale(0.08 -0.08)">
     <use xlink:href="#DejaVuSans-39"/>
     <use x="63.623047" xlink:href="#DejaVuSans-34"/>
    </g>
   </g>
   <g id="text_27">
    <!-- 125 -->
    <g transform="translate(143.332776 40.265972)rotate(-90)scale(0.08 -0.08)">
     <use xlink:href="#DejaVuSans-31"/>
     <use x="63.623047" xlink:href="#DejaVuSans-32"/>
     <use x="127.246094" xlink:href="#DejaVuSans-35"/>
    </g>
   </g>
   <g id="text_28">
    <!-- 93 -->
    <g transform="translate(154.657451 40.265972)rotate(-90)scale(0.08 -0.08)">
     <use xlink:href="#DejaVuSans-39"/>
     <use x="63.623047" xlink:href="#DejaVuSans-33"/>
    </g>
   </g>
   <g id="text_29">
    <!-- 124 -->
    <g transform="translate(165.982127 40.265972)rotate(-90)scale(0.08 -0.08)">
     <use xlink:href="#DejaVuSans-31"/>
     <use x="63.623047" xlink:href="#DejaVuSans-32"/>
     <use x="127.246094" xlink:href="#DejaVuSans-34"/>
    </g>
   </g>
   <g id="text_30">
    <!-- 92 -->
    <g transform="translate(177.306802 40.265972)rotate(-90)scale(0.08 -0.08)">
     <use xlink:href="#DejaVuSans-39"/>
     <use x="63.623047" xlink:href="#DejaVuSans-32"/>
    </g>
   </g>
   <g id="text_31">
    <!-- 123 -->
    <g transform="translate(188.631477 40.265972)rotate(-90)scale(0.08 -0.08)">
     <use xlink:href="#DejaVuSans-31"/>
     <use x="63.623047" xlink:href="#DejaVuSans-32"/>
     <use x="127.246094" xlink:href="#DejaVuSans-33"/>
    </g>
   </g>
   <g id="text_32">
    <!-- 91 -->
    <g transform="translate(199.956153 40.265972)rotate(-90)scale(0.08 -0.08)">
     <use xlink:href="#DejaVuSans-39"/>
     <use x="63.623047" xlink:href="#DejaVuSans-31"/>
    </g>
   </g>
   <g id="text_33">
    <!-- 122 -->
    <g transform="translate(211.280828 40.265972)rotate(-90)scale(0.08 -0.08)">
     <use xlink:href="#DejaVuSans-31"/>
     <use x="63.623047" xlink:href="#DejaVuSans-32"/>
     <use x="127.246094" xlink:href="#DejaVuSans-32"/>
    </g>
   </g>
   <g id="text_34">
    <!-- 90 -->
    <g transform="translate(222.605503 40.265972)rotate(-90)scale(0.08 -0.08)">
     <use xlink:href="#DejaVuSans-39"/>
     <use x="63.623047" xlink:href="#DejaVuSans-30"/>
    </g>
   </g>
   <g id="text_35">
    <!-- 121 -->
    <g transform="translate(233.930179 40.265972)rotate(-90)scale(0.08 -0.08)">
     <use xlink:href="#DejaVuSans-31"/>
     <use x="63.623047" xlink:href="#DejaVuSans-32"/>
     <use x="127.246094" xlink:href="#DejaVuSans-31"/>
    </g>
   </g>
   <g id="text_36">
    <!-- 89 -->
    <g transform="translate(245.254854 40.265972)rotate(-90)scale(0.08 -0.08)">
     <use xlink:href="#DejaVuSans-38"/>
     <use x="63.623047" xlink:href="#DejaVuSans-39"/>
    </g>
   </g>
   <g id="text_37">
    <!-- 120 -->
    <g transform="translate(256.579529 40.265972)rotate(-90)scale(0.08 -0.08)">
     <use xlink:href="#DejaVuSans-31"/>
     <use x="63.623047" xlink:href="#DejaVuSans-32"/>
     <use x="127.246094" xlink:href="#DejaVuSans-30"/>
    </g>
   </g>
   <g id="text_38">
    <!-- 88 -->
    <g transform="translate(267.904205 40.265972)rotate(-90)scale(0.08 -0.08)">
     <use xlink:href="#DejaVuSans-38"/>
     <use x="63.623047" xlink:href="#DejaVuSans-38"/>
    </g>
   </g>
   <g id="text_39">
    <!-- 119 -->
    <g transform="translate(279.22888 40.265972)rotate(-90)scale(0.08 -0.08)">
     <use xlink:href="#DejaVuSans-31"/>
     <use x="63.623047" xlink:href="#DejaVuSans-31"/>
     <use x="127.246094" xlink:href="#DejaVuSans-39"/>
    </g>
   </g>
   <g id="text_40">
    <!-- 87 -->
    <g transform="translate(290.553555 40.265972)rotate(-90)scale(0.08 -0.08)">
     <use xlink:href="#DejaVuSans-38"/>
     <use x="63.623047" xlink:href="#DejaVuSans-37"/>
    </g>
   </g>
   <g id="text_41">
    <!-- 118 -->
    <g transform="translate(301.878231 40.265972)rotate(-90)scale(0.08 -0.08)">
     <use xlink:href="#DejaVuSans-31"/>
     <use x="63.623047" xlink:href="#DejaVuSans-31"/>
     <use x="127.246094" xlink:href="#DejaVuSans-38"/>
    </g>
   </g>
   <g id="text_42">
    <!-- 86 -->
    <g transform="translate(313.202906 40.265972)rotate(-90)scale(0.08 -0.08)">
     <use xlink:href="#DejaVuSans-38"/>
     <use x="63.623047" xlink:href="#DejaVuSans-36"/>
    </g>
   </g>
   <g id="text_43">
    <!-- 117 -->
    <g transform="translate(324.527581 40.265972)rotate(-90)scale(0.08 -0.08)">
     <use xlink:href="#DejaVuSans-31"/>
     <use x="63.623047" xlink:href="#DejaVuSans-31"/>
     <use x="127.246094" xlink:href="#DejaVuSans-37"/>
    </g>
   </g>
   <g id="text_44">
    <!-- 85 -->
    <g transform="translate(335.852256 40.265972)rotate(-90)scale(0.08 -0.08)">
     <use xlink:href="#DejaVuSans-38"/>
     <use x="63.623047" xlink:href="#DejaVuSans-35"/>
    </g>
   </g>
   <g id="text_45">
    <!-- 116 -->
    <g transform="translate(347.176932 40.265972)rotate(-90)scale(0.08 -0.08)">
     <use xlink:href="#DejaVuSans-31"/>
     <use x="63.623047" xlink:href="#DejaVuSans-31"/>
     <use x="127.246094" xlink:href="#DejaVuSans-36"/>
    </g>
   </g>
   <g id="text_46">
    <!-- 84 -->
    <g transform="translate(358.501607 40.265972)rotate(-90)scale(0.08 -0.08)">
     <use xlink:href="#DejaVuSans-38"/>
     <use x="63.623047" xlink:href="#DejaVuSans-34"/>
    </g>
   </g>
   <g id="text_47">
    <!-- 115 -->
    <g transform="translate(369.826282 40.265972)rotate(-90)scale(0.08 -0.08)">
     <use xlink:href="#DejaVuSans-31"/>
     <use x="63.623047" xlink:href="#DejaVuSans-31"/>
     <use x="127.246094" xlink:href="#DejaVuSans-35"/>
    </g>
   </g>
   <g id="text_48">
    <!-- 83 -->
    <g transform="translate(381.150958 40.265972)rotate(-90)scale(0.08 -0.08)">
     <use xlink:href="#DejaVuSans-38"/>
     <use x="63.623047" xlink:href="#DejaVuSans-33"/>
    </g>
   </g>
   <g id="text_49">
    <!-- 114 -->
    <g transform="translate(392.475633 40.265972)rotate(-90)scale(0.08 -0.08)">
     <use xlink:href="#DejaVuSans-31"/>
     <use x="63.623047" xlink:href="#DejaVuSans-31"/>
     <use x="127.246094" xlink:href="#DejaVuSans-34"/>
    </g>
   </g>
   <g id="text_50">
    <!-- 82 -->
    <g transform="translate(403.800308 40.265972)rotate(-90)scale(0.08 -0.08)">
     <use xlink:href="#DejaVuSans-38"/>
     <use x="63.623047" xlink:href="#DejaVuSans-32"/>
    </g>
   </g>
   <g id="text_51">
    <!-- 113 -->
    <g transform="translate(415.124984 40.265972)rotate(-90)scale(0.08 -0.08)">
     <use xlink:href="#DejaVuSans-31"/>
     <use x="63.623047" xlink:href="#DejaVuSans-31"/>
     <use x="127.246094" xlink:href="#DejaVuSans-33"/>
    </g>
   </g>
   <g id="text_52">
    <!-- 81 -->
    <g transform="translate(426.449659 40.265972)rotate(-90)scale(0.08 -0.08)">
     <use xlink:href="#DejaVuSans-38"/>
     <use x="63.623047" xlink:href="#DejaVuSans-31"/>
    </g>
   </g>
   <g id="text_53">
    <!-- 112 -->
    <g transform="translate(437.774334 40.265972)rotate(-90)scale(0.08 -0.08)">
     <use xlink:href="#DejaVuSans-31"/>
     <use x="63.623047" xlink:href="#DejaVuSans-31"/>
     <use x="127.246094" xlink:href="#DejaVuSans-32"/>
    </g>
   </g>
   <g id="text_54">
    <!-- 80 -->
    <g transform="translate(449.09901 40.265972)rotate(-90)scale(0.08 -0.08)">
     <use xlink:href="#DejaVuSans-38"/>
     <use x="63.623047" xlink:href="#DejaVuSans-30"/>
    </g>
   </g>
   <g id="text_55">
    <!-- 111 -->
    <g transform="translate(460.423685 40.265972)rotate(-90)scale(0.08 -0.08)">
     <use xlink:href="#DejaVuSans-31"/>
     <use x="63.623047" xlink:href="#DejaVuSans-31"/>
     <use x="127.246094" xlink:href="#DejaVuSans-31"/>
    </g>
   </g>
   <g id="text_56">
    <!-- 79 -->
    <g transform="translate(471.74836 40.265972)rotate(-90)scale(0.08 -0.08)">
     <use xlink:href="#DejaVuSans-37"/>
     <use x="63.623047" xlink:href="#DejaVuSans-39"/>
    </g>
   </g>
   <g id="text_57">
    <!-- 110 -->
    <g transform="translate(483.073036 40.265972)rotate(-90)scale(0.08 -0.08)">
     <use xlink:href="#DejaVuSans-31"/>
     <use x="63.623047" xlink:href="#DejaVuSans-31"/>
     <use x="127.246094" xlink:href="#DejaVuSans-30"/>
    </g>
   </g>
   <g id="text_58">
    <!-- 78 -->
    <g transform="translate(494.397711 40.265972)rotate(-90)scale(0.08 -0.08)">
     <use xlink:href="#DejaVuSans-37"/>
     <use x="63.623047" xlink:href="#DejaVuSans-38"/>
    </g>
   </g>
   <g id="text_59">
    <!-- 109 -->
    <g transform="translate(505.722386 40.265972)rotate(-90)scale(0.08 -0.08)">
     <use xlink:href="#DejaVuSans-31"/>
     <use x="63.623047" xlink:href="#DejaVuSans-30"/>
     <use x="127.246094" xlink:href="#DejaVuSans-39"/>
    </g>
   </g>
   <g id="text_60">
    <!-- 77 -->
    <g transform="translate(517.047062 40.265972)rotate(-90)scale(0.08 -0.08)">
     <use xlink:href="#DejaVuSans-37"/>
     <use x="63.623047" xlink:href="#DejaVuSans-37"/>
    </g>
   </g>
   <g id="text_61">
    <!-- 108 -->
    <g transform="translate(528.371737 40.265972)rotate(-90)scale(0.08 -0.08)">
     <use xlink:href="#DejaVuSans-31"/>
     <use x="63.623047" xlink:href="#DejaVuSans-30"/>
     <use x="127.246094" xlink:href="#DejaVuSans-38"/>
    </g>
   </g>
   <g id="text_62">
    <!-- 76 -->
    <g transform="translate(539.696412 40.265972)rotate(-90)scale(0.08 -0.08)">
     <use xlink:href="#DejaVuSans-37"/>
     <use x="63.623047" xlink:href="#DejaVuSans-36"/>
    </g>
   </g>
   <g id="text_63">
    <!-- 107 -->
    <g transform="translate(551.021088 40.265972)rotate(-90)scale(0.08 -0.08)">
     <use xlink:href="#DejaVuSans-31"/>
     <use x="63.623047" xlink:href="#DejaVuSans-30"/>
     <use x="127.246094" xlink:href="#DejaVuSans-37"/>
    </g>
   </g>
   <g id="text_64">
    <!-- 75 -->
    <g transform="translate(562.345763 40.265972)rotate(-90)scale(0.08 -0.08)">
     <use xlink:href="#DejaVuSans-37"/>
     <use x="63.623047" xlink:href="#DejaVuSans-35"/>
    </g>
   </g>
   <g id="text_65">
    <!-- 106 -->
    <g transform="translate(573.670438 40.265972)rotate(-90)scale(0.08 -0.08)">
     <use xlink:href="#DejaVuSans-31"/>
     <use x="63.623047" xlink:href="#DejaVuSans-30"/>
     <use x="127.246094" xlink:href="#DejaVuSans-36"/>
    </g>
   </g>
   <g id="text_66">
    <!-- 74 -->
    <g transform="translate(584.995114 40.265972)rotate(-90)scale(0.08 -0.08)">
     <use xlink:href="#DejaVuSans-37"/>
     <use x="63.623047" xlink:href="#DejaVuSans-34"/>
    </g>
   </g>
   <g id="text_67">
    <!-- 105 -->
    <g transform="translate(596.319789 40.265972)rotate(-90)scale(0.08 -0.08)">
     <use xlink:href="#DejaVuSans-31"/>
     <use x="63.623047" xlink:href="#DejaVuSans-30"/>
     <use x="127.246094" xlink:href="#DejaVuSans-35"/>
    </g>
   </g>
   <g id="text_68">
    <!-- 73 -->
    <g transform="translate(607.644464 40.265972)rotate(-90)scale(0.08 -0.08)">
     <use xlink:href="#DejaVuSans-37"/>
     <use x="63.623047" xlink:href="#DejaVuSans-33"/>
    </g>
   </g>
   <g id="text_69">
    <!-- 104 -->
    <g transform="translate(618.96914 40.265972)rotate(-90)scale(0.08 -0.08)">
     <use xlink:href="#DejaVuSans-31"/>
     <use x="63.623047" xlink:href="#DejaVuSans-30"/>
     <use x="127.246094" xlink:href="#DejaVuSans-34"/>
    </g>
   </g>
   <g id="text_70">
    <!-- 72 -->
    <g transform="translate(630.293815 40.265972)rotate(-90)scale(0.08 -0.08)">
     <use xlink:href="#DejaVuSans-37"/>
     <use x="63.623047" xlink:href="#DejaVuSans-32"/>
    </g>
   </g>
   <g id="text_71">
    <!-- 103 -->
    <g transform="translate(641.61849 40.265972)rotate(-90)scale(0.08 -0.08)">
     <use xlink:href="#DejaVuSans-31"/>
     <use x="63.623047" xlink:href="#DejaVuSans-30"/>
     <use x="127.246094" xlink:href="#DejaVuSans-33"/>
    </g>
   </g>
   <g id="text_72">
    <!-- 71 -->
    <g transform="translate(652.943166 40.265972)rotate(-90)scale(0.08 -0.08)">
     <use xlink:href="#DejaVuSans-37"/>
     <use x="63.623047" xlink:href="#DejaVuSans-31"/>
    </g>
   </g>
   <g id="text_73">
    <!-- 102 -->
    <g transform="translate(664.267841 40.265972)rotate(-90)scale(0.08 -0.08)">
     <use xlink:href="#DejaVuSans-31"/>
     <use x="63.623047" xlink:href="#DejaVuSans-30"/>
     <use x="127.246094" xlink:href="#DejaVuSans-32"/>
    </g>
   </g>
   <g id="text_74">
    <!-- 70 -->
    <g transform="translate(675.592516 40.265972)rotate(-90)scale(0.08 -0.08)">
     <use xlink:href="#DejaVuSans-37"/>
     <use x="63.623047" xlink:href="#DejaVuSans-30"/>
    </g>
   </g>
   <g id="text_75">
    <!-- 96 -->
    <g transform="translate(686.917192 40.265972)rotate(-90)scale(0.08 -0.08)">
     <use xlink:href="#DejaVuSans-39"/>
     <use x="63.623047" xlink:href="#DejaVuSans-36"/>
    </g>
   </g>
   <g id="text_76">
    <!-- 64 -->
    <g transform="translate(698.241867 40.265972)rotate(-90)scale(0.08 -0.08)">
     <use xlink:href="#DejaVuSans-36"/>
     <use x="63.623047" xlink:href="#DejaVuSans-34"/>
    </g>
   </g>
   <g id="text_77">
    <!-- 97 -->
    <g transform="translate(709.566542 40.265972)rotate(-90)scale(0.08 -0.08)">
     <use xlink:href="#DejaVuSans-39"/>
     <use x="63.623047" xlink:href="#DejaVuSans-37"/>
    </g>
   </g>
   <g id="text_78">
    <!-- 65 -->
    <g transform="translate(720.891218 40.265972)rotate(-90)scale(0.08 -0.08)">
     <use xlink:href="#DejaVuSans-36"/>
     <use x="63.623047" xlink:href="#DejaVuSans-35"/>
    </g>
   </g>
   <g id="text_79">
    <!-- 98 -->
    <g transform="translate(732.215893 40.265972)rotate(-90)scale(0.08 -0.08)">
     <use xlink:href="#DejaVuSans-39"/>
     <use x="63.623047" xlink:href="#DejaVuSans-38"/>
    </g>
   </g>
   <g id="text_80">
    <!-- 66 -->
    <g transform="translate(743.540568 40.265972)rotate(-90)scale(0.08 -0.08)">
     <use xlink:href="#DejaVuSans-36"/>
     <use x="63.623047" xlink:href="#DejaVuSans-36"/>
    </g>
   </g>
   <g id="text_81">
    <!-- 99 -->
    <g transform="translate(754.865244 40.265972)rotate(-90)scale(0.08 -0.08)">
     <use xlink:href="#DejaVuSans-39"/>
     <use x="63.623047" xlink:href="#DejaVuSans-39"/>
    </g>
   </g>
   <g id="text_82">
    <!-- 67 -->
    <g transform="translate(766.189919 40.265972)rotate(-90)scale(0.08 -0.08)">
     <use xlink:href="#DejaVuSans-36"/>
     <use x="63.623047" xlink:href="#DejaVuSans-37"/>
    </g>
   </g>
   <g id="text_83">
    <!-- 100 -->
    <g transform="translate(777.514594 40.265972)rotate(-90)scale(0.08 -0.08)">
     <use xlink:href="#DejaVuSans-31"/>
     <use x="63.623047" xlink:href="#DejaVuSans-30"/>
     <use x="127.246094" xlink:href="#DejaVuSans-30"/>
    </g>
   </g>
   <g id="text_84">
    <!-- 68 -->
    <g transform="translate(788.839269 40.265972)rotate(-90)scale(0.08 -0.08)">
     <use xlink:href="#DejaVuSans-36"/>
     <use x="63.623047" xlink:href="#DejaVuSans-38"/>
    </g>
   </g>
   <g id="text_85">
    <!-- 101 -->
    <g transform="translate(800.163945 40.265972)rotate(-90)scale(0.08 -0.08)">
     <use xlink:href="#DejaVuSans-31"/>
     <use x="63.623047" xlink:href="#DejaVuSans-30"/>
     <use x="127.246094" xlink:href="#DejaVuSans-31"/>
    </g>
   </g>
   <g id="text_86">
    <!-- 69 -->
    <g transform="translate(811.48862 40.265972)rotate(-90)scale(0.08 -0.08)">
     <use xlink:href="#DejaVuSans-36"/>
     <use x="63.623047" xlink:href="#DejaVuSans-39"/>
    </g>
   </g>
   <g id="legend_1">
    <g id="patch_71">
     <path d="M 733.746875 101.554375 
L 846.2 101.554375 
Q 848.2 101.554375 848.2 99.554375 
L 848.2 56.52 
Q 848.2 54.52 846.2 54.52 
L 733.746875 54.52 
Q 731.746875 54.52 731.746875 56.52 
L 731.746875 99.554375 
Q 731.746875 101.554375 733.746875 101.554375 
z
" style="fill:#ffffff;opacity:0.8;stroke:#cccccc;stroke-linejoin:miter;"/>
    </g>
    <g id="patch_72">
     <path d="M 735.746875 66.118438 
L 755.746875 66.118438 
L 755.746875 59.118438 
L 735.746875 59.118438 
z
" style="fill:#008000;stroke:#008000;stroke-linejoin:miter;"/>
    </g>
    <g id="text_87">
     <!-- Access (L1 hit) -->
     <g transform="translate(763.746875 66.118438)scale(0.1 -0.1)">
      <defs>
       <path d="M 1172 4494 
L 1172 3500 
L 2356 3500 
L 2356 3053 
L 1172 3053 
L 1172 1153 
Q 1172 725 1289 603 
Q 1406 481 1766 481 
L 2356 481 
L 2356 0 
L 1766 0 
Q 1100 0 847 248 
Q 594 497 594 1153 
L 594 3053 
L 172 3053 
L 172 3500 
L 594 3500 
L 594 4494 
L 1172 4494 
z
" id="DejaVuSans-74" transform="scale(0.015625)"/>
      </defs>
      <use xlink:href="#DejaVuSans-41"/>
      <use x="66.658203" xlink:href="#DejaVuSans-63"/>
      <use x="121.638672" xlink:href="#DejaVuSans-63"/>
      <use x="176.619141" xlink:href="#DejaVuSans-65"/>
      <use x="238.142578" xlink:href="#DejaVuSans-73"/>
      <use x="290.242188" xlink:href="#DejaVuSans-73"/>
      <use x="342.341797" xlink:href="#DejaVuSans-20"/>
      <use x="374.128906" xlink:href="#DejaVuSans-28"/>
      <use x="413.142578" xlink:href="#DejaVuSans-4c"/>
      <use x="468.855469" xlink:href="#DejaVuSans-31"/>
      <use x="532.478516" xlink:href="#DejaVuSans-20"/>
      <use x="564.265625" xlink:href="#DejaVuSans-68"/>
      <use x="627.644531" xlink:href="#DejaVuSans-69"/>
      <use x="655.427734" xlink:href="#DejaVuSans-74"/>
      <use x="694.636719" xlink:href="#DejaVuSans-29"/>
     </g>
    </g>
    <g id="patch_73">
     <path d="M 735.746875 80.796563 
L 755.746875 80.796563 
L 755.746875 73.796563 
L 735.746875 73.796563 
z
" style="fill:#ff0000;stroke:#ff0000;stroke-linejoin:miter;"/>
    </g>
    <g id="text_88">
     <!-- Prefetch (L2 hit) -->
     <g transform="translate(763.746875 80.796563)scale(0.1 -0.1)">
      <defs>
       <path d="M 1259 4147 
L 1259 2394 
L 2053 2394 
Q 2494 2394 2734 2622 
Q 2975 2850 2975 3272 
Q 2975 3691 2734 3919 
Q 2494 4147 2053 4147 
L 1259 4147 
z
M 628 4666 
L 2053 4666 
Q 2838 4666 3239 4311 
Q 3641 3956 3641 3272 
Q 3641 2581 3239 2228 
Q 2838 1875 2053 1875 
L 1259 1875 
L 1259 0 
L 628 0 
L 628 4666 
z
" id="DejaVuSans-50" transform="scale(0.015625)"/>
       <path d="M 2375 4863 
L 2375 4384 
L 1825 4384 
Q 1516 4384 1395 4259 
Q 1275 4134 1275 3809 
L 1275 3500 
L 2222 3500 
L 2222 3053 
L 1275 3053 
L 1275 0 
L 697 0 
L 697 3053 
L 147 3053 
L 147 3500 
L 697 3500 
L 697 3744 
Q 697 4328 969 4595 
Q 1241 4863 1831 4863 
L 2375 4863 
z
" id="DejaVuSans-66" transform="scale(0.015625)"/>
      </defs>
      <use xlink:href="#DejaVuSans-50"/>
      <use x="58.552734" xlink:href="#DejaVuSans-72"/>
      <use x="97.416016" xlink:href="#DejaVuSans-65"/>
      <use x="158.939453" xlink:href="#DejaVuSans-66"/>
      <use x="194.144531" xlink:href="#DejaVuSans-65"/>
      <use x="255.667969" xlink:href="#DejaVuSans-74"/>
      <use x="294.876953" xlink:href="#DejaVuSans-63"/>
      <use x="349.857422" xlink:href="#DejaVuSans-68"/>
      <use x="413.236328" xlink:href="#DejaVuSans-20"/>
      <use x="445.023438" xlink:href="#DejaVuSans-28"/>
      <use x="484.037109" xlink:href="#DejaVuSans-4c"/>
      <use x="539.75" xlink:href="#DejaVuSans-32"/>
      <use x="603.373047" xlink:href="#DejaVuSans-20"/>
      <use x="635.160156" xlink:href="#DejaVuSans-68"/>
      <use x="698.539062" xlink:href="#DejaVuSans-69"/>
      <use x="726.322266" xlink:href="#DejaVuSans-74"/>
      <use x="765.53125" xlink:href="#DejaVuSans-29"/>
     </g>
    </g>
    <g id="patch_74">
     <path d="M 735.746875 95.474688 
L 755.746875 95.474688 
L 755.746875 88.474688 
L 735.746875 88.474688 
z
" style="fill:#d3d3d3;stroke:#d3d3d3;stroke-linejoin:miter;"/>
    </g>
    <g id="text_89">
     <!-- Miss -->
     <g transform="translate(763.746875 95.474688)scale(0.1 -0.1)">
      <defs>
       <path d="M 628 4666 
L 1569 4666 
L 2759 1491 
L 3956 4666 
L 4897 4666 
L 4897 0 
L 4281 0 
L 4281 4097 
L 3078 897 
L 2444 897 
L 1241 4097 
L 1241 0 
L 628 0 
L 628 4666 
z
" id="DejaVuSans-4d" transform="scale(0.015625)"/>
      </defs>
      <use xlink:href="#DejaVuSans-4d"/>
      <use x="86.279297" xlink:href="#DejaVuSans-69"/>
      <use x="114.0625" xlink:href="#DejaVuSans-73"/>
      <use x="166.162109" xlink:href="#DejaVuSans-73"/>
     </g>
    </g>
   </g>
  </g>
 </g>
 <defs>
  <clipPath id="p9947aa661e">
   <rect height="196.52" width="802.24" x="50.96" y="49.52"/>
  </clipPath>
 </defs>
</svg>
